HIERARCHY
ROOT Hips
{
    OFFSET   0.000000   0.000000   0.000000
    CHANNELS 6 Xposition Yposition Zposition Zrotation Xrotation Yrotation
    JOINT Chest
    {
        OFFSET   0.000000   8.007230   0.000000
        CHANNELS 3 Zrotation Xrotation Yrotation
        JOINT Chest2
        {
            OFFSET   0.000000  22.077100   0.000000
            CHANNELS 3 Zrotation Xrotation Yrotation
            JOINT Neck
            {
                OFFSET   0.000000  23.254800  -0.000021
                CHANNELS 3 Zrotation Xrotation Yrotation
                JOINT Head
                {
                    OFFSET   0.000000  14.370000   1.956610
                    CHANNELS 3 Zrotation Xrotation Yrotation
                    End Site
                    {
                        OFFSET   0.000000  19.566000   0.000000
                    }
                }
            }
            JOINT LeftCollar
            {
                OFFSET   3.911900  19.017000  -0.467063
                CHANNELS 3 Zrotation Xrotation Yrotation
                JOINT LeftShoulder
                {
                    OFFSET  10.383700   0.000000   0.000000
                    CHANNELS 3 Zrotation Xrotation Yrotation
                    JOINT LeftElbow
                    {
                        OFFSET  26.662100   0.001529   0.000325
                        CHANNELS 3 Zrotation Xrotation Yrotation
                        JOINT LeftWrist
                        {
                            OFFSET  28.869000  -0.000011  -0.000096
                            CHANNELS 3 Zrotation Xrotation Yrotation
                            JOINT LeftFinger0
                            {
                                OFFSET   2.044650  -2.323460   3.252850
                                CHANNELS 3 Zrotation Xrotation Yrotation
                                JOINT LeftFinger01
                                {
                                    OFFSET   3.088130   0.000000   0.000000
                                    CHANNELS 3 Zrotation Xrotation Yrotation
                                    JOINT LeftFinger02
                                    {
                                        OFFSET   2.639460   0.000000   0.000000
                                        CHANNELS 3 Zrotation Xrotation Yrotation
                                        End Site
                                        {
                                            OFFSET   2.582190   0.000000   0.000000
                                        }
                                    }
                                }
                            }
                            JOINT LeftFinger1
                            {
                                OFFSET   8.364480   0.000000   3.252850
                                CHANNELS 3 Zrotation Xrotation Yrotation
                                JOINT LeftFinger11
                                {
                                    OFFSET   4.646930   0.000000   0.000000
                                    CHANNELS 3 Zrotation Xrotation Yrotation
                                    JOINT LeftFinger12
                                    {
                                        OFFSET   2.323460   0.000000   0.000000
                                        CHANNELS 3 Zrotation Xrotation Yrotation
                                        End Site
                                        {
                                            OFFSET   2.273050   0.000000   0.000000
                                        }
                                    }
                                }
                            }
                            JOINT LeftFinger2
                            {
                                OFFSET   8.364480   0.000016   1.078090
                                CHANNELS 3 Zrotation Xrotation Yrotation
                                JOINT LeftFinger21
                                {
                                    OFFSET   5.111620   0.000000   0.000000
                                    CHANNELS 3 Zrotation Xrotation Yrotation
                                    JOINT LeftFinger22
                                    {
                                        OFFSET   2.788160   0.000017   0.000000
                                        CHANNELS 3 Zrotation Xrotation Yrotation
                                        End Site
                                        {
                                            OFFSET   2.727660   0.000000   0.000000
                                        }
                                    }
                                }
                            }
                            JOINT LeftFinger3
                            {
                                OFFSET   7.899780   0.000015  -1.078090
                                CHANNELS 3 Zrotation Xrotation Yrotation
                                JOINT LeftFinger31
                                {
                                    OFFSET   4.646920   0.000000   0.000000
                                    CHANNELS 3 Zrotation Xrotation Yrotation
                                    JOINT LeftFinger32
                                    {
                                        OFFSET   2.323470   0.000000   0.000000
                                        CHANNELS 3 Zrotation Xrotation Yrotation
                                        End Site
                                        {
                                            OFFSET   2.273050   0.000000   0.000000
                                        }
                                    }
                                }
                            }
                            JOINT LeftFinger4
                            {
                                OFFSET   7.435090   0.000000  -3.252850
                                CHANNELS 3 Zrotation Xrotation Yrotation
                                JOINT LeftFinger41
                                {
                                    OFFSET   3.717550   0.000000   0.000000
                                    CHANNELS 3 Zrotation Xrotation Yrotation
                                    JOINT LeftFinger42
                                    {
                                        OFFSET   1.858760   0.000000   0.000000
                                        CHANNELS 3 Zrotation Xrotation Yrotation
                                        End Site
                                        {
                                            OFFSET   1.818440   0.000000   0.000000
                                        }
                                    }
                                }
                            }
                        }
                    }
                }
            }
            JOINT RightCollar
            {
                OFFSET  -3.911900  19.017000  -0.467062
                CHANNELS 3 Zrotation Xrotation Yrotation
                JOINT RightShoulder
                {
                    OFFSET -10.383700   0.000015   0.000000
                    CHANNELS 3 Zrotation Xrotation Yrotation
                    JOINT RightElbow
                    {
                        OFFSET -26.662100   0.001341   0.000385
                        CHANNELS 3 Zrotation Xrotation Yrotation
                        JOINT RightWrist
                        {
                            OFFSET -28.869000   0.000025  -0.000080
                            CHANNELS 3 Zrotation Xrotation Yrotation
                            JOINT RightFinger0
                            {
                                OFFSET  -2.044650  -2.323490   3.252850
                                CHANNELS 3 Zrotation Xrotation Yrotation
                                JOINT RightFinger01
                                {
                                    OFFSET  -3.088130   0.000000   0.000000
                                    CHANNELS 3 Zrotation Xrotation Yrotation
                                    JOINT RightFinger02
                                    {
                                        OFFSET  -2.639460   0.000000   0.000000
                                        CHANNELS 3 Zrotation Xrotation Yrotation
                                        End Site
                                        {
                                            OFFSET  -2.582190   0.000000   0.000000
                                        }
                                    }
                                }
                            }
                            JOINT RightFinger1
                            {
                                OFFSET  -8.364480   0.000000   3.252850
                                CHANNELS 3 Zrotation Xrotation Yrotation
                                JOINT RightFinger11
                                {
                                    OFFSET  -4.646930   0.000000   0.000000
                                    CHANNELS 3 Zrotation Xrotation Yrotation
                                    JOINT RightFinger12
                                    {
                                        OFFSET  -2.323470   0.000000   0.000000
                                        CHANNELS 3 Zrotation Xrotation Yrotation
                                        End Site
                                        {
                                            OFFSET  -2.273050   0.000000   0.000000
                                        }
                                    }
                                }
                            }
                            JOINT RightFinger2
                            {
                                OFFSET  -8.364480   0.000000   1.078090
                                CHANNELS 3 Zrotation Xrotation Yrotation
                                JOINT RightFinger21
                                {
                                    OFFSET  -5.111610   0.000000   0.000000
                                    CHANNELS 3 Zrotation Xrotation Yrotation
                                    JOINT RightFinger22
                                    {
                                        OFFSET  -2.788160   0.000000   0.000000
                                        CHANNELS 3 Zrotation Xrotation Yrotation
                                        End Site
                                        {
                                            OFFSET  -2.727660   0.000000   0.000000
                                        }
                                    }
                                }
                            }
                            JOINT RightFinger3
                            {
                                OFFSET  -7.899780   0.000000  -1.078090
                                CHANNELS 3 Zrotation Xrotation Yrotation
                                JOINT RightFinger31
                                {
                                    OFFSET  -4.646920   0.000000   0.000000
                                    CHANNELS 3 Zrotation Xrotation Yrotation
                                    JOINT RightFinger32
                                    {
                                        OFFSET  -2.323470   0.000000   0.000000
                                        CHANNELS 3 Zrotation Xrotation Yrotation
                                        End Site
                                        {
                                            OFFSET  -2.273050   0.000000   0.000000
                                        }
                                    }
                                }
                            }
                            JOINT RightFinger4
                            {
                                OFFSET  -7.435090   0.000000  -3.252850
                                CHANNELS 3 Zrotation Xrotation Yrotation
                                JOINT RightFinger41
                                {
                                    OFFSET  -3.717550   0.000000   0.000000
                                    CHANNELS 3 Zrotation Xrotation Yrotation
                                    JOINT RightFinger42
                                    {
                                        OFFSET  -1.858770   0.000000   0.000000
                                        CHANNELS 3 Zrotation Xrotation Yrotation
                                        End Site
                                        {
                                            OFFSET  -1.818440   0.000000   0.000000
                                        }
                                    }
                                }
                            }
                        }
                    }
                }
            }
        }
    }
    JOINT LeftHip
    {
        OFFSET   9.783010   0.000000   0.000000
        CHANNELS 3 Zrotation Xrotation Yrotation
        JOINT LeftKnee
        {
            OFFSET   0.000070 -41.789100   0.000028
            CHANNELS 3 Zrotation Xrotation Yrotation
            JOINT LeftAnkle
            {
                OFFSET   0.000087 -41.133200  -0.000100
                CHANNELS 3 Zrotation Xrotation Yrotation
                JOINT LeftToe
                {
                    OFFSET   0.000000  -6.358960  14.674500
                    CHANNELS 3 Zrotation Xrotation Yrotation
                    End Site
                    {
                        OFFSET   0.000000   0.000000   3.913200
                    }
                }
            }
        }
    }
    JOINT RightHip
    {
        OFFSET  -9.783020   0.000000   0.000000
        CHANNELS 3 Zrotation Xrotation Yrotation
        JOINT RightKnee
        {
            OFFSET   0.000044 -41.789100  -0.000870
            CHANNELS 3 Zrotation Xrotation Yrotation
            JOINT RightAnkle
            {
                OFFSET  -0.000090 -41.133200  -0.000245
                CHANNELS 3 Zrotation Xrotation Yrotation
                JOINT RightToe
                {
                    OFFSET   0.000000  -6.358960  14.674500
                    CHANNELS 3 Zrotation Xrotation Yrotation
                    End Site
                    {
                        OFFSET   0.000000   0.000000   3.913200
                    }
                }
            }
        }
    }
}
MOTION
Frames: 5
Frame Time:   0.016667
 -1.686010  89.351600  -0.487092   0.032089 -10.492800   2.559230   1.754770   9.580650  -0.454024   3.666360  19.142100  -1.236830   0.109609  -3.153840   0.012822   0.184530  -6.395550  11.269500 -12.137000  -6.073080   6.808160 -71.438100  17.369100  -6.732220   0.024256  -0.292596 -20.515400   7.959880  -9.136460   0.470375  39.307000  32.765100 -46.557600 -32.812100   0.000025   0.000078 -11.406000   0.000598   0.000348 -33.211100  -1.440770   2.199890 -27.195900   0.000000  -0.003734 -19.037100  -0.002539  -0.004173 -29.527900  -2.613970   6.606780 -44.419600   0.003303  -0.005651 -29.583500   0.002875   0.002735 -27.981600  -4.123700   7.708040 -33.885000   0.002878  -0.004840 -22.567400   0.002279  -0.000333 -28.209400  -4.659390   8.613680 -42.839100   0.002185  -0.013220 -28.530800  -0.002317   0.002361   9.974890  -1.134730  15.668400  67.348600   4.298250  39.381300  -1.996160 -10.554700  44.791300 -47.847100 -85.146800 -37.134200 -41.528800  32.502500  62.899000  27.469200   0.000435  -0.000143   8.734600   0.000057  -0.002048  18.869900   1.796920   5.237600  15.506800   0.000106  -0.006417  10.854700  -0.000317  -0.004773  18.908900  -0.796751  -2.320430  18.925100   0.005687   0.001233  12.604100   0.002248   0.000827  23.746300  -0.989086  -2.245510  23.765600   0.002687   0.000903  15.827900   0.000248  -0.001328  24.358400  -2.933610  -6.453400  36.785500   0.000019   0.002480  24.499200  -0.005844  -0.009726   4.332640  11.278200   0.407391   0.600609   2.405130  10.851700  -5.149000  -3.157620  -1.881670  -0.000000   0.000000   0.000000  -0.882756  13.776900  -4.285400   1.690280   0.183174 -14.996500  -0.692506  -3.037160   3.009500  -0.000000   0.000000  -0.000000
 -1.687490  89.350200  -0.500933   0.082248 -10.446500   2.794160   1.711990   9.566620  -0.418161   3.572260  19.115800  -1.155480   0.154861  -3.183660   0.013607   0.256376  -6.455750  11.271300 -12.154200  -6.055940   6.826320 -71.532900  17.113200  -6.610090   0.040496  -0.398934 -20.066000   7.995010  -9.252040   0.589767  39.219500  32.637600 -46.530900 -32.867300   0.000145   0.000164 -11.433700   0.000738   0.000301 -33.259400  -1.466440   2.235120 -27.235800   0.000000  -0.003543 -19.065100  -0.002690  -0.004072 -29.528800  -2.763540   6.602490 -44.446800   0.003752  -0.005715 -29.601600   0.005659   0.002913 -27.985500  -4.138430   7.734010 -33.926100   0.002964  -0.004862 -22.594800   0.002179  -0.000321 -28.205400  -4.670960   8.633900 -42.837400   0.003169  -0.013438 -28.529700  -0.002654   0.002456   9.977520  -1.209810  15.703100  67.310400   4.265450  39.373500  -2.020360 -10.571100  44.723500 -46.166400 -85.272200 -35.385200 -41.520200  32.571500  63.001500  27.517800   0.000203  -0.000128   8.758870  -0.000061  -0.002099  19.083700   1.865790   5.376850  15.685600   0.000215  -0.006413  10.979900  -0.000228  -0.004781  19.170600  -0.781518  -2.246100  19.185800   0.005593   0.001229  12.777700   0.002248   0.000832  23.904200  -0.964389  -2.174120  23.922400   0.002638   0.000907  15.932300   0.000259  -0.001449  24.553000  -2.911150  -6.343190  37.071600   0.000326   0.002480  24.689700  -0.005847  -0.009634   4.334850  11.210300   0.339666   0.605218   2.355560  10.727400  -5.160820  -3.090100  -1.913030   0.000000   0.000000  -0.000000  -0.885049  13.720100  -4.339520   1.718800   0.228371 -15.044500  -0.704474  -3.082800   2.863840  -0.000000   0.000000   0.000000
 -1.691360  89.350300  -0.518644   0.131330 -10.394000   3.000300   1.668340   9.549320  -0.387200   3.477210  19.082700  -1.083910   0.209751  -3.219320   0.014160   0.347948  -6.527630  11.255700 -12.172200  -6.044370   6.852690 -71.624700  16.862700  -6.481380   0.014061  -0.633866 -19.531100   7.999700  -9.336770   0.627724  39.149300  32.542200 -46.558400 -32.927700   0.000282   0.000272 -11.463900   0.000871   0.000279 -33.312400  -1.493130   2.270070 -27.279900  -0.000047  -0.003347 -19.095900  -0.002791  -0.003948 -29.528700  -2.975710   6.596750 -44.483400   0.009252  -0.005783 -29.626000   0.009672   0.003082 -27.991300  -4.155200   7.762720 -33.987800   0.007453  -0.004890 -22.635900   0.002080  -0.000321 -28.217800  -4.685240   8.654610 -42.859300   0.004163  -0.013645 -28.544400  -0.002988   0.002546   9.971180  -1.278380  15.733100  67.237300   4.291950  39.411100  -2.068560 -10.646100  44.606600 -43.943500 -85.379500 -33.156200 -41.525700  32.656600  63.174100  27.575300  -0.000030   0.000028   8.787630  -0.000183  -0.002145  19.264000   1.874750   5.349330  15.832600   0.000338  -0.006415  11.082800  -0.000146  -0.004781  19.310300  -0.790851  -2.262490  19.325700   0.005501   0.001230  12.870900   0.002258   0.000833  23.943600  -0.972061  -2.190950  23.962100   0.002581   0.000904  15.958800   0.000279  -0.001577  24.624900  -2.911390  -6.318160  37.179100   0.000633   0.002473  24.761300  -0.005840  -0.009541   4.333470  11.131500   0.274884   0.608153   2.322720  10.629000  -5.171500  -3.035070  -1.945090   0.000000   0.000000   0.000000  -0.890950  13.698200  -4.371950   1.746820   0.190842 -15.088500  -0.724614  -3.088660   2.723720  -0.000000   0.000000   0.000000
 -1.696970  89.350500  -0.537628   0.175232 -10.337300   3.177350   1.626210   9.529110  -0.359979   3.385910  19.043600  -1.020180   0.272100  -3.253860   0.015465   0.451153  -6.597340  11.218100 -12.188400  -6.034840   6.883820 -71.723700  16.604000  -6.341890  -0.017578  -0.885483 -18.993400   7.989580  -9.410490   0.660813  39.084900  32.475500 -46.635200 -32.985700   0.000423   0.000380 -11.492900   0.001007   0.000260 -33.362900  -1.507750   2.288600 -27.321400  -0.000123  -0.003147 -19.125000  -0.002884  -0.003817 -29.522100  -3.232900   6.591740 -44.518000   0.017289  -0.005855 -29.649000   0.013593   0.003239 -27.997000  -4.164670   7.778570 -34.046400   0.013810  -0.004925 -22.674900   0.001981  -0.000321 -28.231900  -4.693630   8.665240 -42.881300   0.005205  -0.013839 -28.559000  -0.003316   0.002631   9.963700  -1.338500  15.762700  67.122600   4.351010  39.488700  -2.121170 -10.757300  44.469200 -41.771700 -85.429000 -30.984700 -41.500100  32.713800  63.316500  27.626300  -0.000268   0.000226   8.813160  -0.000311  -0.002191  19.435100   1.878640   5.307160  15.972600   0.000468  -0.006417  11.180800  -0.000062  -0.004781  19.421900  -0.811957  -2.303410  19.437700   0.005413   0.001231  12.945500   0.002281   0.000833  23.975900  -0.992392  -2.231720  23.994800   0.002525   0.000901  15.980600   0.000305  -0.001703  24.674700  -2.912180  -6.311090  37.253000   0.000946   0.002460  24.810500  -0.005834  -0.009440   4.330070  11.047300   0.213616   0.612142   2.300580  10.554900  -5.181700  -2.988080  -1.976130  -0.000000   0.000000  -0.000000  -0.896802  13.678500  -4.397210   1.771780   0.140576 -15.112200  -0.744007  -3.092860   2.595500   0.000000   0.000000   0.000000
 -1.703730  89.350900  -0.555526   0.214817 -10.279300   3.329760   1.587290   9.505690  -0.336258   3.301720  18.997800  -0.964078   0.337251  -3.281990   0.018949   0.559241  -6.654260  11.164100 -12.199400  -6.024120   6.912420 -71.832000  16.330400  -6.187060  -0.036091  -1.071880 -18.538800   7.963640  -9.493830   0.770202  39.061600  32.469700 -46.785800 -33.031800   0.000557   0.000457 -11.516000   0.001155   0.000235 -33.398000  -1.503220   2.279690 -27.350100  -0.000174  -0.002947 -19.145100  -0.003000  -0.003688 -29.496500  -3.559240   6.590470 -44.536100   0.023776  -0.005930 -29.661100   0.015808   0.003383 -27.999800  -4.162530   7.773720 -34.073300   0.017006  -0.004967 -22.692800   0.001885  -0.000328 -28.231600  -4.688900   8.656180 -42.879200   0.006252  -0.014020 -28.557600  -0.003638   0.002710   9.961130  -1.386410  15.789600  66.952400   4.435890  39.588400  -2.177190 -10.883100  44.320700 -40.439100 -85.366800 -29.692800 -41.464600  32.708200  63.359400  27.637300  -0.000516   0.000306   8.818670  -0.000452  -0.002240  19.612500   1.889770   5.285700  16.117900   0.000606  -0.006410  11.282500   0.000030  -0.004775  19.554100  -0.837000  -2.358130  19.570700   0.005332   0.001224  13.034100   0.002311   0.000833  24.079700  -1.020500  -2.284730  24.099400   0.002476   0.000902  16.050300   0.000340  -0.001815  24.757200  -2.916550  -6.299590  37.376500   0.001262   0.002448  24.892700  -0.005835  -0.009326   4.322850  10.961900   0.154537   0.620860   2.286610  10.509100  -5.192190  -2.945370  -2.011970  -0.000000   0.000000  -0.000000  -0.901633  13.644900  -4.427420   1.791630   0.125680 -15.114000  -0.754488  -3.107770   2.480050  -0.000000   0.000000   0.000000
